<svg width="80" height="72" viewBox="0 0 80 72" fill="none" xmlns="http://www.w3.org/2000/svg">
<path d="M80 35.9634C80 30.6634 73.3633 25.64 63.1867 22.5267C65.5367 12.1567 64.4933 3.90337 59.8933 1.26004C58.7787 0.635775 57.5172 0.321548 56.24 0.350041V3.98337C56.99 3.98337 57.5933 4.13337 58.1 4.41004C60.3167 5.68337 61.28 10.5234 60.53 16.7534C60.35 18.2867 60.0567 19.9 59.6967 21.5467C56.2888 20.7255 52.83 20.132 49.3433 19.77C47.2662 16.9043 45 14.1805 42.56 11.6167C47.8767 6.67671 52.8667 3.97004 56.26 3.97004V0.333374C51.7733 0.333374 45.9033 3.53004 39.9667 9.07337C34.0333 3.56671 28.16 0.400041 23.6767 0.400041V4.03337C27.0533 4.03337 32.06 6.72671 37.3767 11.6334C35.0933 14.0334 32.81 16.7534 30.64 19.77C27.1461 20.128 23.6812 20.7272 20.27 21.5634C19.8933 19.9334 19.6167 18.3534 19.42 16.8367C18.6533 10.6034 19.6 5.76337 21.8033 4.47671C22.29 4.18337 22.9267 4.05004 23.6767 4.05004V0.416707C22.31 0.416707 21.0667 0.710041 19.9933 1.32671C15.41 3.97004 14.3833 12.2034 16.7467 22.5434C6.60333 25.6767 0 30.68 0 35.9634C0 41.2634 6.63667 46.2867 16.8133 49.3967C14.4633 59.77 15.5067 68.0234 20.1067 70.6634C21.1667 71.2834 22.4067 71.5767 23.7733 71.5767C28.26 71.5767 34.13 68.38 40.0667 62.8367C46 68.3467 51.87 71.51 56.3567 71.51C57.6437 71.5372 58.9148 71.222 60.04 70.5967C64.6233 67.9567 65.65 59.7234 63.2867 49.3834C73.3967 46.27 80 41.2467 80 35.9634ZM58.7667 25.0867C58.1333 27.2662 57.3992 29.4152 56.5667 31.5267C55.2039 28.8759 53.7075 26.2959 52.0833 23.7967C54.4 24.14 56.6333 24.5634 58.77 25.0867H58.7667ZM51.3 42.4534C50.03 44.6534 48.7233 46.7434 47.37 48.6834C42.4775 49.1146 37.5568 49.1202 32.6633 48.7C29.8565 44.6906 27.4018 40.4459 25.3267 36.0134C27.3986 31.5704 29.8429 27.3107 32.6333 23.28C37.5246 22.8479 42.4442 22.8412 47.3367 23.26C48.69 25.2 50.0133 27.2734 51.2833 29.46C52.5233 31.5934 53.65 33.76 54.6767 35.9467C53.6386 38.1599 52.5121 40.3305 51.3 42.4534ZM56.5667 40.3334C57.4467 42.5167 58.2 44.7034 58.8167 46.8234C56.6833 47.3467 54.43 47.7867 52.1 48.1267C53.7175 45.6048 55.2082 43.0038 56.5667 40.3334ZM40.0333 57.7334C38.5167 56.1667 37 54.4234 35.5 52.5134C36.9667 52.58 38.4667 52.63 39.9833 52.63C41.5167 52.63 43.0333 52.5967 44.5167 52.5134C43.05 54.4234 41.5333 56.1667 40.0333 57.7334ZM27.9 48.1267C25.6525 47.8011 23.4212 47.3717 21.2133 46.84C21.8167 44.7367 22.5667 42.5667 23.4133 40.4C24.0833 41.7 24.7867 43.0067 25.5533 44.3134C26.32 45.6167 27.1 46.89 27.9 48.1267ZM39.95 14.1934C41.4667 15.76 42.9833 17.5034 44.4833 19.4134C43.0167 19.3467 41.5167 19.2967 40 19.2967C38.4667 19.2967 36.95 19.33 35.4667 19.4134C36.9333 17.5034 38.45 15.76 39.95 14.1934ZM27.8833 23.8C26.2662 26.3165 24.7755 28.9119 23.4167 31.5767C22.5607 29.4516 21.8098 27.2856 21.1667 25.0867C23.3 24.58 25.5533 24.14 27.8833 23.8ZM13.1267 44.2134C7.35333 41.7534 3.62 38.5234 3.62 35.9634C3.62 33.4034 7.35333 30.1567 13.1267 27.7134C14.5267 27.11 16.06 26.57 17.6433 26.0667C18.5733 29.26 19.7967 32.5867 21.31 35.9967C19.8812 39.204 18.6729 42.505 17.6933 45.8767C16.1448 45.3972 14.6208 44.8421 13.1267 44.2134ZM21.9 67.5134C19.6833 66.2467 18.72 61.4 19.47 55.1734C19.65 53.64 19.9433 52.0234 20.3033 50.3767C23.4967 51.16 26.9867 51.7634 30.6567 52.1567C32.7339 55.0223 35.0001 57.7462 37.44 60.31C32.1233 65.25 27.1333 67.9567 23.74 67.9567C23.0998 67.9637 22.4678 67.8126 21.9 67.5167V67.5134ZM60.58 55.09C61.3467 61.32 60.4 66.1634 58.1967 67.45C57.71 67.7434 57.0733 67.8734 56.3233 67.8734C52.9467 67.8734 47.94 65.1834 42.6233 60.2734C44.9067 57.88 47.19 55.1567 49.36 52.14C52.8539 51.7821 56.3188 51.1829 59.73 50.3467C60.1067 51.9934 60.3967 53.5734 60.58 55.09ZM66.8567 44.2134C65.4567 44.8167 63.9233 45.3567 62.34 45.86C61.3432 42.4711 60.1182 39.1535 58.6733 35.93C60.1733 32.54 61.3767 29.23 62.29 26.05C63.9067 26.5534 65.4367 27.11 66.8733 27.7134C72.6467 30.1734 76.38 33.4034 76.38 35.9634C76.3633 38.5234 72.63 41.77 66.8567 44.2134Z" fill="#00DF5E"/>
<path d="M39.9828 43.4164C41.9596 43.4164 43.8554 42.6312 45.2531 41.2334C46.6509 39.8356 47.4362 37.9398 47.4362 35.9631C47.4362 33.9864 46.6509 32.0906 45.2531 30.6928C43.8554 29.295 41.9596 28.5098 39.9828 28.5098C38.0061 28.5098 36.1103 29.295 34.7125 30.6928C33.3148 32.0906 32.5295 33.9864 32.5295 35.9631C32.5295 37.9398 33.3148 39.8356 34.7125 41.2334C36.1103 42.6312 38.0061 43.4164 39.9828 43.4164Z" fill="#00DF5E"/>
</svg>